HIERARCHY
ROOT Hips
{
	OFFSET -335.845001 -574.368103 89.378365
	CHANNELS 6 Xposition Yposition Zposition Zrotation Yrotation Xrotation
	JOINT Spine
	{
		OFFSET 0.000000 2.080078 8.814247
		CHANNELS 6 Xposition Yposition Zposition Zrotation Yrotation Xrotation
		JOINT Spine1
		{
			OFFSET 0.000000 0.000000 8.844139
			CHANNELS 6 Xposition Yposition Zposition Zrotation Yrotation Xrotation
			JOINT Spine2
			{
				OFFSET 0.000000 0.000000 11.682266
				CHANNELS 6 Xposition Yposition Zposition Zrotation Yrotation Xrotation
				JOINT Spine3
				{
					OFFSET 0.000000 0.000000 11.746696
					CHANNELS 6 Xposition Yposition Zposition Zrotation Yrotation Xrotation
					JOINT Neck
					{
						OFFSET 0.000000 0.000000 17.658264
						CHANNELS 6 Xposition Yposition Zposition Zrotation Yrotation Xrotation
						JOINT Neck1
						{
							OFFSET 0.000000 0.000000 5.101517
							CHANNELS 6 Xposition Yposition Zposition Zrotation Yrotation Xrotation
							JOINT Head
							{
								OFFSET 0.000000 0.000000 5.101517
								CHANNELS 6 Xposition Yposition Zposition Zrotation Yrotation Xrotation
								JOINT HeadEnd
								{
									OFFSET 0.000000 0.000000 11.655090
									CHANNELS 6 Xposition Yposition Zposition Zrotation Yrotation Xrotation
									End Site
									{
										OFFSET 0.000000 0.000000 0.100006
									}
								}
							}
						}
					}
					JOINT RightShoulder
					{
						OFFSET -2.625397 0.000000 11.175217
						CHANNELS 6 Xposition Yposition Zposition Zrotation Yrotation Xrotation
						JOINT RightArm
						{
							OFFSET 0.000000 0.000000 10.434708
							CHANNELS 6 Xposition Yposition Zposition Zrotation Yrotation Xrotation
							JOINT RightForeArm
							{
								OFFSET 0.000000 0.000000 29.628418
								CHANNELS 6 Xposition Yposition Zposition Zrotation Yrotation Xrotation
								JOINT RightHand
								{
									OFFSET 0.000000 0.000000 22.857605
									CHANNELS 6 Xposition Yposition Zposition Zrotation Yrotation Xrotation
									JOINT RightHandThumb1
									{
										OFFSET -2.867310 -2.944275 3.959564
										CHANNELS 6 Xposition Yposition Zposition Zrotation Yrotation Xrotation
										JOINT RightHandThumb2
										{
											OFFSET 0.000000 0.000000 3.350403
											CHANNELS 6 Xposition Yposition Zposition Zrotation Yrotation Xrotation
											JOINT RightHandThumb3
											{
												OFFSET 0.000000 0.000000 3.756516
												CHANNELS 6 Xposition Yposition Zposition Zrotation Yrotation Xrotation
												JOINT RightHandThumb4
												{
													OFFSET 0.000000 0.000000 3.147339
													CHANNELS 6 Xposition Yposition Zposition Zrotation Yrotation Xrotation
													End Site
													{
														OFFSET 0.000000 0.000000 0.100006
													}
												}
											}
										}
									}
									JOINT RightHandIndex1
									{
										OFFSET -0.086761 -2.345276 10.030899
										CHANNELS 6 Xposition Yposition Zposition Zrotation Yrotation Xrotation
										JOINT RightHandIndex2
										{
											OFFSET 0.000000 0.000000 4.061096
											CHANNELS 6 Xposition Yposition Zposition Zrotation Yrotation Xrotation
											JOINT RightHandIndex3
											{
												OFFSET 0.000000 0.000000 3.248871
												CHANNELS 6 Xposition Yposition Zposition Zrotation Yrotation Xrotation
												JOINT RightHandIndex4
												{
													OFFSET 0.000000 0.000000 2.639709
													CHANNELS 6 Xposition Yposition Zposition Zrotation Yrotation Xrotation
													End Site
													{
														OFFSET 0.000000 0.000000 0.100006
													}
												}
											}
										}
									}
									JOINT RightHandMiddle1
									{
										OFFSET 0.104095 -0.006775 9.502945
										CHANNELS 6 Xposition Yposition Zposition Zrotation Yrotation Xrotation
										JOINT RightHandMiddle2
										{
											OFFSET 0.000000 0.000000 4.568726
											CHANNELS 6 Xposition Yposition Zposition Zrotation Yrotation Xrotation
											JOINT RightHandMiddle3
											{
												OFFSET 0.000000 0.000000 3.654984
												CHANNELS 6 Xposition Yposition Zposition Zrotation Yrotation Xrotation
												JOINT RightHandMiddle4
												{
													OFFSET 0.000000 0.000000 2.741241
													CHANNELS 6 Xposition Yposition Zposition Zrotation Yrotation Xrotation
													End Site
													{
														OFFSET 0.000000 0.000000 0.100006
													}
												}
											}
										}
									}
									JOINT RightHandRing1
									{
										OFFSET 0.086761 2.267456 8.921707
										CHANNELS 6 Xposition Yposition Zposition Zrotation Yrotation Xrotation
										JOINT RightHandRing2
										{
											OFFSET 0.000000 0.000000 4.061096
											CHANNELS 6 Xposition Yposition Zposition Zrotation Yrotation Xrotation
											JOINT RightHandRing3
											{
												OFFSET 0.000000 0.000000 3.654984
												CHANNELS 6 Xposition Yposition Zposition Zrotation Yrotation Xrotation
												JOINT RightHandRing4
												{
													OFFSET 0.000000 0.000000 2.741241
													CHANNELS 6 Xposition Yposition Zposition Zrotation Yrotation Xrotation
													End Site
													{
														OFFSET 0.000000 0.000000 0.100006
													}
												}
											}
										}
									}
									JOINT RightHandPinky1
									{
										OFFSET -0.173492 4.467224 7.976990
										CHANNELS 6 Xposition Yposition Zposition Zrotation Yrotation Xrotation
										JOINT RightHandPinky2
										{
											OFFSET 0.000000 0.000000 3.350403
											CHANNELS 6 Xposition Yposition Zposition Zrotation Yrotation Xrotation
											JOINT RightHandPinky3
											{
												OFFSET 0.000000 0.000000 2.842758
												CHANNELS 6 Xposition Yposition Zposition Zrotation Yrotation Xrotation
												JOINT RightHandPinky4
												{
													OFFSET 0.000000 0.000000 2.639709
													CHANNELS 6 Xposition Yposition Zposition Zrotation Yrotation Xrotation
													End Site
													{
														OFFSET 0.000000 0.000000 0.100006
													}
												}
											}
										}
									}
									JOINT RightForeArmEnd
									{
										OFFSET 0.000000 0.000000 0.000000
										CHANNELS 6 Xposition Yposition Zposition Zrotation Yrotation Xrotation
										End Site
										{
											OFFSET 0.000000 0.000000 0.100006
										}
									}
								}
								JOINT RightArmEnd
								{
									OFFSET 0.000000 0.000000 0.000000
									CHANNELS 6 Xposition Yposition Zposition Zrotation Yrotation Xrotation
									End Site
									{
										OFFSET 0.000000 0.000000 0.100006
									}
								}
							}
						}
					}
					JOINT LeftShoulder
					{
						OFFSET 2.625397 0.000000 11.175217
						CHANNELS 6 Xposition Yposition Zposition Zrotation Yrotation Xrotation
						JOINT LeftArm
						{
							OFFSET 0.000000 0.000000 10.813629
							CHANNELS 6 Xposition Yposition Zposition Zrotation Yrotation Xrotation
							JOINT LeftForeArm
							{
								OFFSET 0.000000 0.000000 28.724777
								CHANNELS 6 Xposition Yposition Zposition Zrotation Yrotation Xrotation
								JOINT LeftHand
								{
									OFFSET 0.644379 0.328857 25.716171
									CHANNELS 6 Xposition Yposition Zposition Zrotation Yrotation Xrotation
									JOINT LeftHandThumb1
									{
										OFFSET 2.867310 -2.944275 3.959564
										CHANNELS 6 Xposition Yposition Zposition Zrotation Yrotation Xrotation
										JOINT LeftHandThumb2
										{
											OFFSET 0.000000 0.000000 3.350403
											CHANNELS 6 Xposition Yposition Zposition Zrotation Yrotation Xrotation
											JOINT LeftHandThumb3
											{
												OFFSET 0.000000 0.000000 3.756516
												CHANNELS 6 Xposition Yposition Zposition Zrotation Yrotation Xrotation
												JOINT LeftHandThumb4
												{
													OFFSET 0.000000 0.000000 3.100006
													CHANNELS 6 Xposition Yposition Zposition Zrotation Yrotation Xrotation
													End Site
													{
														OFFSET 0.000000 0.000000 0.100006
													}
												}
											}
										}
									}
									JOINT LeftHandIndex1
									{
										OFFSET 0.086761 -2.345276 10.030899
										CHANNELS 6 Xposition Yposition Zposition Zrotation Yrotation Xrotation
										JOINT LeftHandIndex2
										{
											OFFSET 0.000000 0.000000 4.061096
											CHANNELS 6 Xposition Yposition Zposition Zrotation Yrotation Xrotation
											JOINT LeftHandIndex3
											{
												OFFSET 0.000000 0.000000 3.248871
												CHANNELS 6 Xposition Yposition Zposition Zrotation Yrotation Xrotation
												JOINT LeftHandIndex4
												{
													OFFSET 0.000000 0.000000 2.639709
													CHANNELS 6 Xposition Yposition Zposition Zrotation Yrotation Xrotation
													End Site
													{
														OFFSET 0.000000 0.000000 0.100006
													}
												}
											}
										}
									}
									JOINT LeftHandMiddle1
									{
										OFFSET -0.104095 -0.006775 9.502945
										CHANNELS 6 Xposition Yposition Zposition Zrotation Yrotation Xrotation
										JOINT LeftHandMiddle2
										{
											OFFSET 0.000000 0.000000 4.568726
											CHANNELS 6 Xposition Yposition Zposition Zrotation Yrotation Xrotation
											JOINT LeftHandMiddle3
											{
												OFFSET 0.000000 0.000000 3.654984
												CHANNELS 6 Xposition Yposition Zposition Zrotation Yrotation Xrotation
												JOINT LeftHandMiddle4
												{
													OFFSET 0.000000 0.000000 2.741241
													CHANNELS 6 Xposition Yposition Zposition Zrotation Yrotation Xrotation
													End Site
													{
														OFFSET 0.000000 0.000000 0.100006
													}
												}
											}
										}
									}
									JOINT LeftHandRing1
									{
										OFFSET -0.086761 2.267456 8.921707
										CHANNELS 6 Xposition Yposition Zposition Zrotation Yrotation Xrotation
										JOINT LeftHandRing2
										{
											OFFSET 0.000000 0.000000 4.061096
											CHANNELS 6 Xposition Yposition Zposition Zrotation Yrotation Xrotation
											JOINT LeftHandRing3
											{
												OFFSET 0.000000 0.000000 3.654984
												CHANNELS 6 Xposition Yposition Zposition Zrotation Yrotation Xrotation
												JOINT LeftHandRing4
												{
													OFFSET 0.000000 0.000000 2.741241
													CHANNELS 6 Xposition Yposition Zposition Zrotation Yrotation Xrotation
													End Site
													{
														OFFSET 0.000000 0.000000 0.100006
													}
												}
											}
										}
									}
									JOINT LeftHandPinky1
									{
										OFFSET 0.173492 4.467224 7.976990
										CHANNELS 6 Xposition Yposition Zposition Zrotation Yrotation Xrotation
										JOINT LeftHandPinky2
										{
											OFFSET 0.000000 0.000000 3.350403
											CHANNELS 6 Xposition Yposition Zposition Zrotation Yrotation Xrotation
											JOINT LeftHandPinky3
											{
												OFFSET 0.000000 0.000000 2.842758
												CHANNELS 6 Xposition Yposition Zposition Zrotation Yrotation Xrotation
												JOINT LeftHandPinky4
												{
													OFFSET 0.000000 0.000000 2.639709
													CHANNELS 6 Xposition Yposition Zposition Zrotation Yrotation Xrotation
													End Site
													{
														OFFSET 0.000000 0.000000 0.100006
													}
												}
											}
										}
									}
									JOINT LeftForeArmEnd
									{
										OFFSET 0.000000 0.000000 0.000000
										CHANNELS 6 Xposition Yposition Zposition Zrotation Yrotation Xrotation
										End Site
										{
											OFFSET 0.000000 0.000000 0.100006
										}
									}
								}
								JOINT LeftArmEnd
								{
									OFFSET 0.000000 0.000000 0.000000
									CHANNELS 6 Xposition Yposition Zposition Zrotation Yrotation Xrotation
									End Site
									{
										OFFSET 0.000000 0.000000 0.100006
									}
								}
							}
						}
					}
				}
			}
		}
	}
	JOINT RightUpLeg
	{
		OFFSET -11.289948 0.000000 0.000000
		CHANNELS 6 Xposition Yposition Zposition Zrotation Yrotation Xrotation
		JOINT RightLeg
		{
			OFFSET 0.000000 0.000000 -38.200329
			CHANNELS 6 Xposition Yposition Zposition Zrotation Yrotation Xrotation
			JOINT RightFoot
			{
				OFFSET 0.000000 0.000000 -39.900856
				CHANNELS 6 Xposition Yposition Zposition Zrotation Yrotation Xrotation
				JOINT RightToeBase
				{
					OFFSET 0.000000 -15.261658 0.000002
					CHANNELS 6 Xposition Yposition Zposition Zrotation Yrotation Xrotation
					JOINT RightToeBaseEnd
					{
						OFFSET 0.000000 -7.370728 0.000000
						CHANNELS 6 Xposition Yposition Zposition Zrotation Yrotation Xrotation
						End Site
						{
							OFFSET 0.000000 0.000000 0.100000
						}
					}
				}
				JOINT RightLegEnd
				{
					OFFSET 0.000000 0.000000 0.000000
					CHANNELS 6 Xposition Yposition Zposition Zrotation Yrotation Xrotation
					End Site
					{
						OFFSET 0.000000 0.000000 0.100000
					}
				}
			}
			JOINT RightUpLegEnd
			{
				OFFSET 0.000000 0.000000 0.000000
				CHANNELS 6 Xposition Yposition Zposition Zrotation Yrotation Xrotation
				End Site
				{
					OFFSET 0.000000 0.000000 0.099998
				}
			}
		}
	}
	JOINT LeftUpLeg
	{
		OFFSET 11.315674 0.000000 0.000000
		CHANNELS 6 Xposition Yposition Zposition Zrotation Yrotation Xrotation
		JOINT LeftLeg
		{
			OFFSET 0.000000 0.000000 -38.200329
			CHANNELS 6 Xposition Yposition Zposition Zrotation Yrotation Xrotation
			JOINT LeftFoot
			{
				OFFSET 0.000000 0.000000 -39.900856
				CHANNELS 6 Xposition Yposition Zposition Zrotation Yrotation Xrotation
				JOINT LeftToeBase
				{
					OFFSET 0.000000 -15.261658 0.000002
					CHANNELS 6 Xposition Yposition Zposition Zrotation Yrotation Xrotation
					JOINT LeftToeBaseEnd
					{
						OFFSET 0.000000 -7.539978 0.000000
						CHANNELS 6 Xposition Yposition Zposition Zrotation Yrotation Xrotation
						End Site
						{
							OFFSET 0.000000 0.000000 0.100000
						}
					}
				}
				JOINT LeftLegEnd
				{
					OFFSET 0.000000 0.000000 0.000000
					CHANNELS 6 Xposition Yposition Zposition Zrotation Yrotation Xrotation
					End Site
					{
						OFFSET 0.000000 0.000000 0.100000
					}
				}
			}
			JOINT LeftUpLegEnd
			{
				OFFSET 0.000000 0.000000 0.000000
				CHANNELS 6 Xposition Yposition Zposition Zrotation Yrotation Xrotation
				End Site
				{
					OFFSET 0.000000 0.000000 0.099998
				}
			}
		}
	}
}
MOTION
Frames: 2
Frame Time: 0.016667
-33.370117 -34.573181 87.677589 24.090547 1.522149 -3.807894 0.000017 2.080094 8.814267 -0.045197 -1.700171 1.520159 -0.000014 0.000015 8.844142 -0.047003 1.021490 -0.183831 -0.000008 0.000029 11.682276 -3.579001 -0.679276 4.175377 -0.000037 -0.000020 11.746691 -1.170745 -0.701486 4.287475 -0.000012 0.000017 17.658260 -2.609338 -7.145829 11.288825 -0.000008 0.000014 5.101517 0.718949 -0.411071 -0.648831 -0.000003 -0.000009 5.101518 -0.657054 -0.007567 -16.267154 -0.000015 -0.000010 11.655062 0.000002 0.000001 0.000000 -2.625391 -0.000020 11.175214 9.888838 -90.716708 -0.731603 0.000000 0.000015 10.434715 -55.373863 -56.259691 38.945947 0.000000 -0.000002 29.628395 18.649765 1.520719 93.564624 0.000008 0.000004 22.857616 -20.440067 31.904671 -4.559877 -2.867344 -2.944290 3.959564 32.430886 -26.206063 38.950189 -0.000015 -0.000046 3.350422 -32.457680 10.558207 -54.776427 -0.000008 0.000000 3.756542 -21.577449 10.761427 -37.395190 -0.000016 -0.000057 3.147338 -0.000002 0.000003 -0.000003 -0.086763 -2.345278 10.030920 -82.879599 -71.357520 83.579427 0.000004 -0.000065 4.061104 -7.892692 -60.452925 14.353439 -0.000011 -0.000040 3.248871 -8.390149 -60.453089 14.351312 -0.000031 -0.000013 2.639718 0.000002 -0.000001 -0.000002 0.104078 -0.006893 9.502915 -84.723886 -76.457534 89.892352 -0.000017 -0.000054 4.568710 -2.942226 -62.202779 5.702886 -0.000053 0.000020 3.654940 -3.442419 -62.202785 5.702202 -0.000039 0.000002 2.741223 0.000001 -0.000002 -0.000003 0.086769 2.267414 8.921684 23.169725 -103.839919 -10.140872 -0.000023 -0.000034 4.061115 6.205705 -70.814158 -10.121783 -0.000025 -0.000046 3.654949 7.205729 -70.814145 -10.120950 -0.000060 -0.000000 2.741237 0.000002 -0.000001 -0.000002 -0.173492 4.467146 7.976990 -7.302449 -111.236324 26.605836 -0.000008 -0.000057 3.350433 23.007516 -71.060769 -34.504613 -0.000015 -0.000057 2.842735 25.007438 -71.060735 -34.504521 -0.000021 -0.000073 2.639723 0.000001 0.000000 -0.000001 0.000005 0.000021 0.000027 -0.000003 -0.000001 -0.000000 -0.000004 -0.000001 -0.000000 0.000001 -0.000003 -0.000000 2.625396 -0.000012 11.175200 -5.632961 89.751384 0.020890 -0.000008 -0.000011 10.813614 63.884617 64.733705 37.143583 0.000029 0.000000 28.724794 -14.847950 0.426838 100.499260 0.644333 0.328819 25.716133 9.977764 -36.369125 6.192848 2.867275 -2.944351 3.959564 -33.368387 28.932886 35.307536 -0.000015 0.000015 3.350433 38.136443 -9.120983 -64.011836 -0.000061 -0.000015 3.756527 25.652973 -11.066062 -43.903486 -0.000047 -0.000007 3.100030 0.000001 -0.000000 0.000000 0.086750 -2.345306 10.030937 -7.372093 101.029761 -17.527261 0.000031 0.000006 4.061150 -15.505831 69.995656 -22.708400 0.000004 0.000019 3.248909 -16.005790 69.995649 -22.708333 -0.000016 -0.000006 2.639742 0.000000 -0.000004 0.000001 -0.104034 -0.006784 9.502964 -28.800616 103.175410 -32.904143 0.000032 -0.000067 4.568737 -5.727237 70.968507 -8.730811 0.000029 -0.000054 3.655025 -6.228387 70.968452 -8.731507 -0.000037 -0.000002 2.741252 -0.000000 -0.000001 0.000000 -0.086739 2.267435 8.921745 -32.998891 115.900100 -28.316357 -0.000008 -0.000015 4.061146 12.421229 77.896491 16.567013 0.000011 -0.000031 3.655022 13.436907 77.895548 16.585683 -0.000039 -0.000001 2.741235 -0.000000 0.000003 -0.000001 0.173477 4.467175 7.976982 -42.833858 122.970890 -28.371301 0.000019 -0.000004 3.350437 41.619338 76.465621 53.854126 -0.000008 0.000008 2.842810 43.619285 76.465607 53.854071 -0.000018 -0.000012 2.639720 0.000001 -0.000001 -0.000001 -0.000023 -0.000009 0.000048 0.000003 0.000002 -0.000001 -0.000007 -0.000003 0.000000 -0.000002 -0.000000 -0.000003 -11.289908 -0.000003 0.000004 -3.123965 -4.792683 0.712747 0.000029 -0.000003 -38.200298 -0.238714 0.068246 15.731684 -0.000002 -0.000063 -39.900875 -12.329109 2.492689 13.678889 0.000008 -15.261707 0.000045 0.655161 1.072790 -17.347181 -0.000006 -7.370662 -0.000000 -0.000001 0.000000 -0.000001 -0.000003 0.000056 -0.000001 0.000001 -0.000000 0.000002 0.000002 0.000068 -0.000005 -0.000001 0.000000 -0.000001 11.315737 0.000051 0.000013 -5.755545 -0.269906 -1.848978 0.000022 0.000041 -38.200329 0.011275 -0.005246 24.920656 0.000012 0.000064 -39.900856 12.368872 -1.063386 9.587213 0.000014 -15.261740 0.000022 0.055280 -0.960419 -21.520548 -0.000034 -7.539984 0.000001 0.000001 0.000001 -0.000000 0.000015 -0.000001 0.000000 0.000000 0.000001 -0.000000 0.000013 0.000000 0.000000 -0.000000 0.000000 -0.000000 
-33.401642 -34.476990 87.685791 24.350044 1.523828 -3.949042 0.000013 2.080082 8.814266 -0.055333 -1.619651 1.605298 0.000004 0.000010 8.844148 -0.051019 1.020735 0.021332 -0.000002 0.000023 11.682269 -3.740934 -0.730613 4.167495 -0.000024 -0.000003 11.746696 -1.241219 -0.752090 4.365809 0.000012 0.000002 17.658260 -2.780258 -7.144827 11.202234 0.000012 0.000023 5.101513 0.579611 -0.406342 -0.749607 0.000004 -0.000011 5.101486 -0.655631 -0.063262 -16.475362 0.000006 -0.000008 11.655097 0.000001 0.000001 0.000000 -2.625396 0.000013 11.175219 10.253322 -90.592897 -0.917159 0.000008 0.000011 10.434708 -54.134928 -55.240466 37.834655 0.000002 0.000004 29.628433 18.541141 1.504942 93.463291 0.000000 -0.000031 22.857582 -20.158403 31.889822 -3.960159 -2.867321 -2.944275 3.959534 32.430882 -26.206072 38.950192 0.000008 0.000000 3.350380 -32.457677 10.558199 -54.776457 -0.000008 -0.000023 3.756477 -21.577430 10.761453 -37.395159 -0.000030 -0.000084 3.147340 0.000002 -0.000000 -0.000002 -0.086735 -2.345292 10.030926 -82.634183 -71.348935 83.175926 -0.000042 -0.000059 4.061104 -7.856735 -60.383517 14.313705 -0.000011 -0.000065 3.248863 -8.356774 -60.383544 14.313732 -0.000023 -0.000005 2.639698 0.000001 -0.000002 -0.000002 0.104078 -0.006844 9.502909 -84.093296 -76.443771 89.088500 -0.000017 -0.000017 4.568672 -2.919938 -62.091665 5.676945 -0.000045 -0.000005 3.654900 -3.419958 -62.091692 5.676585 -0.000027 -0.000003 2.741249 0.000002 -0.000003 -0.000001 0.086784 2.267475 8.921715 23.625476 -103.596737 -10.767192 -0.000015 -0.000033 4.061100 6.112645 -70.641238 -10.025212 -0.000015 -0.000042 3.654953 7.112621 -70.641245 -10.023732 -0.000017 0.000000 2.741227 0.000001 -0.000000 -0.000002 -0.173462 4.467155 7.976952 -7.390069 -110.941827 26.579907 -0.000015 -0.000050 3.350414 22.689865 -70.909255 -34.168619 -0.000008 -0.000072 2.842754 24.689811 -70.909228 -34.168557 -0.000030 -0.000074 2.639719 0.000002 0.000001 -0.000004 -0.000006 0.000033 0.000006 -0.000005 0.000000 -0.000000 0.000002 -0.000003 0.000008 0.000000 -0.000002 -0.000001 2.625384 0.000001 11.175243 -5.976245 89.350171 -0.091149 0.000000 -0.000011 10.813625 62.653380 63.594764 36.138821 0.000025 -0.000061 28.724813 -14.646688 0.424745 100.476905 0.644371 0.328747 25.716171 9.761928 -36.281729 6.101330 2.867236 -2.944351 3.959549 -33.368387 28.932879 35.307519 0.000000 -0.000031 3.350395 38.136430 -9.120997 -64.011850 -0.000046 -0.000008 3.756523 25.652951 -11.066062 -43.903479 -0.000025 0.000004 3.100016 -0.000001 -0.000001 0.000000 0.086765 -2.345251 10.030960 -7.679934 100.706775 -18.022912 -0.000008 -0.000004 4.061119 -15.276297 69.806015 -22.463961 0.000015 -0.000013 3.248932 -15.776270 69.806009 -22.463939 -0.000032 -0.000012 2.639711 0.000002 -0.000000 0.000001 -0.104095 -0.006771 9.502979 -29.316183 102.973079 -33.608192 0.000032 -0.000044 4.568724 -5.664243 70.815606 -8.663249 0.000013 -0.000038 3.655005 -6.164262 70.815593 -8.663281 -0.000024 0.000009 2.741266 -0.000001 -0.000000 0.000002 -0.086769 2.267429 8.921745 -32.924370 115.953185 -28.338081 -0.000011 0.000003 4.061131 12.467505 77.933879 16.613926 -0.000008 -0.000028 3.654995 13.472166 77.933695 16.619203 -0.000038 0.000006 2.741260 0.000000 0.000002 -0.000001 0.173492 4.467167 7.976944 -42.459902 123.203239 -28.067185 0.000031 0.000011 3.350468 42.336391 76.586037 54.591489 0.000015 0.000019 2.842791 44.336380 76.586010 54.589689 -0.000028 -0.000003 2.639713 -0.000000 -0.000000 -0.000001 -0.000013 -0.000011 0.000047 -0.000000 0.000003 0.000001 -0.000025 0.000008 0.000007 0.000000 0.000001 -0.000000 -11.289930 -0.000022 0.000008 -3.365374 -4.761533 0.786281 0.000009 0.000008 -38.200302 -0.239488 0.068797 15.791792 -0.000017 -0.000083 -39.900860 -12.345399 2.473157 13.731820 0.000010 -15.261718 0.000039 0.654569 1.072418 -17.392052 -0.000001 -7.370666 0.000001 -0.000000 0.000000 -0.000001 -0.000002 0.000060 -0.000001 0.000000 -0.000000 0.000000 0.000012 0.000060 -0.000001 0.000000 0.000000 -0.000000 11.315735 -0.000053 0.000009 -6.031081 -0.239020 -1.962027 0.000032 0.000023 -38.200310 0.005231 -0.001861 25.185715 0.000014 0.000063 -39.900860 12.382503 -1.054663 9.671994 -0.000013 -15.261736 0.000022 0.073642 -0.952922 -21.693241 -0.000022 -7.539974 -0.000001 -0.000001 -0.000000 0.000001 -0.000015 0.000003 -0.000002 -0.000000 0.000002 0.000000 0.000035 0.000008 0.000004 -0.000001 0.000000 -0.000000 
